# Blender 3.5.1
# www.blender.org
mtllib GridSelector.mtl
o Cube.001
v 0.900000 0.020000 -0.900000
v 1.000000 0.020000 -1.000000
v 1.000000 -0.020000 -1.000000
v 0.900000 -0.020000 -0.900000
v 1.000000 0.020000 1.000000
v 0.900000 0.020000 0.900000
v 1.000000 -0.020000 1.000000
v 0.900000 -0.020000 0.900000
v -1.000000 0.020000 -1.000000
v -0.900000 0.020000 -0.900000
v -1.000000 -0.020000 -1.000000
v -0.900000 -0.020000 -0.900000
v -1.000000 0.020000 1.000000
v -0.900000 0.020000 0.900000
v -1.000000 -0.020000 1.000000
v -0.900000 -0.020000 0.900000
vn -0.0000 1.0000 -0.0000
vn -0.0000 -0.0000 1.0000
vn -1.0000 -0.0000 -0.0000
vn -0.0000 -1.0000 -0.0000
vn 1.0000 -0.0000 -0.0000
vn -0.0000 -0.0000 -1.0000
vt 0.637500 0.512500
vt 0.625000 0.500000
vt 0.625000 0.500000
vt 0.375000 0.500000
vt 0.362500 0.512500
vt 0.375000 0.500000
vt 0.625000 0.750000
vt 0.637500 0.737500
vt 0.625000 0.750000
vt 0.375000 0.750000
vt 0.362500 0.737500
vt 0.375000 0.750000
vt 0.875000 0.500000
vt 0.625000 0.250000
vt 0.862500 0.512500
vt 0.625000 0.250000
vt 0.125000 0.500000
vt 0.375000 0.250000
vt 0.137500 0.512500
vt 0.375000 0.250000
vt 0.875000 0.750000
vt 0.625000 1.000000
vt 0.625000 0.000000
vt 0.862500 0.737500
vt 0.625000 1.000000
vt 0.625000 0.000000
vt 0.375000 1.000000
vt 0.375000 0.000000
vt 0.125000 0.750000
vt 0.137500 0.737500
vt 0.375000 1.000000
vt 0.375000 0.000000
s 0
usemtl Material.001
f 1/1/1 2/3/1 9/13/1 13/21/1 5/7/1 6/8/1 14/24/1 10/15/1
f 1/1/1 6/8/1 5/7/1 2/3/1
f 7/10/2 5/7/2 13/22/2 15/27/2
f 15/28/3 13/23/3 9/14/3 11/18/3
f 11/17/4 3/4/4 7/10/4 15/29/4 16/30/4 8/11/4 4/5/4 12/19/4
f 11/17/4 12/19/4 16/30/4 15/29/4
f 3/4/5 2/3/5 5/7/5 7/10/5
f 11/18/6 9/14/6 2/3/6 3/4/6
f 14/25/6 6/9/6 8/12/6 16/31/6
f 16/32/5 12/20/5 10/16/5 14/26/5
f 6/9/3 1/2/3 4/6/3 8/12/3
f 12/20/2 4/6/2 1/2/2 10/16/2
